<mxfile host="app.diagrams.net" agent="Mozilla/5.0 (Windows NT 10.0; Win64; x64; rv:143.0) Gecko/20100101 Firefox/143.0" version="28.2.5">
  <diagram name="Page-1" id="--YKOo83Bhxol62qjwoW">
    <mxGraphModel dx="961" dy="533" grid="1" gridSize="10" guides="1" tooltips="1" connect="1" arrows="1" fold="1" page="1" pageScale="1" pageWidth="850" pageHeight="1100" math="0" shadow="0">
      <root>
        <mxCell id="0" />
        <mxCell id="1" parent="0" />
        <mxCell id="BHg9AFTFCtXIUyWafe2j-76" value="6. Afișeaz pagina complet()" style="html=1;verticalAlign=bottom;endArrow=open;dashed=1;endSize=8;curved=0;rounded=0;" edge="1" parent="1" source="BHg9AFTFCtXIUyWafe2j-79" target="BHg9AFTFCtXIUyWafe2j-77">
          <mxGeometry relative="1" as="geometry">
            <mxPoint x="1160" y="290" as="sourcePoint" />
            <mxPoint x="1070" y="299.77" as="targetPoint" />
            <Array as="points">
              <mxPoint x="1090" y="280" />
            </Array>
          </mxGeometry>
        </mxCell>
        <mxCell id="BHg9AFTFCtXIUyWafe2j-69" value="1. Accesează pagina unui produs()" style="html=1;verticalAlign=bottom;endArrow=block;curved=0;rounded=0;" edge="1" parent="1" source="BHg9AFTFCtXIUyWafe2j-77" target="BHg9AFTFCtXIUyWafe2j-79">
          <mxGeometry width="80" relative="1" as="geometry">
            <mxPoint x="1000" y="160" as="sourcePoint" />
            <mxPoint x="1080" y="160" as="targetPoint" />
            <Array as="points">
              <mxPoint x="1080" y="150" />
            </Array>
          </mxGeometry>
        </mxCell>
        <mxCell id="BHg9AFTFCtXIUyWafe2j-6" value="Baza de date" style="shape=umlLifeline;perimeter=lifelinePerimeter;whiteSpace=wrap;html=1;container=1;dropTarget=0;collapsible=0;recursiveResize=0;outlineConnect=0;portConstraint=eastwest;newEdgeStyle={&quot;curved&quot;:0,&quot;rounded&quot;:0};participant=umlEntity;size=75;" vertex="1" parent="1">
          <mxGeometry x="580" y="75" width="80" height="465" as="geometry" />
        </mxCell>
        <mxCell id="BHg9AFTFCtXIUyWafe2j-8" value="Backend" style="shape=umlLifeline;perimeter=lifelinePerimeter;whiteSpace=wrap;html=1;container=1;dropTarget=0;collapsible=0;recursiveResize=0;outlineConnect=0;portConstraint=eastwest;newEdgeStyle={&quot;curved&quot;:0,&quot;rounded&quot;:0};participant=umlControl;size=75;" vertex="1" parent="1">
          <mxGeometry x="410" y="75" width="70" height="465" as="geometry" />
        </mxCell>
        <mxCell id="BHg9AFTFCtXIUyWafe2j-11" value="" style="html=1;points=[[0,0,0,0,5],[0,1,0,0,-5],[1,0,0,0,5],[1,1,0,0,-5]];perimeter=orthogonalPerimeter;outlineConnect=0;targetShapes=umlLifeline;portConstraint=eastwest;newEdgeStyle={&quot;curved&quot;:0,&quot;rounded&quot;:0};" vertex="1" parent="BHg9AFTFCtXIUyWafe2j-8">
          <mxGeometry x="30" y="175" width="10" height="25" as="geometry" />
        </mxCell>
        <mxCell id="BHg9AFTFCtXIUyWafe2j-12" value="3. Autorizeaza&amp;nbsp;&lt;br&gt;utilizatorul()" style="html=1;align=left;spacingLeft=2;endArrow=block;rounded=0;edgeStyle=orthogonalEdgeStyle;curved=0;rounded=0;" edge="1" target="BHg9AFTFCtXIUyWafe2j-11" parent="BHg9AFTFCtXIUyWafe2j-8">
          <mxGeometry relative="1" as="geometry">
            <mxPoint x="35" y="155" as="sourcePoint" />
            <Array as="points">
              <mxPoint x="65" y="185" />
            </Array>
          </mxGeometry>
        </mxCell>
        <mxCell id="BHg9AFTFCtXIUyWafe2j-1" value="" style="shape=umlLifeline;perimeter=lifelinePerimeter;whiteSpace=wrap;html=1;container=1;dropTarget=0;collapsible=0;recursiveResize=0;outlineConnect=0;portConstraint=eastwest;newEdgeStyle={&quot;curved&quot;:0,&quot;rounded&quot;:0};participant=umlActor;" vertex="1" parent="1">
          <mxGeometry x="100" y="90" width="20" height="450" as="geometry" />
        </mxCell>
        <mxCell id="BHg9AFTFCtXIUyWafe2j-34" value="" style="html=1;points=[[0,0,0,0,5],[0,1,0,0,-5],[1,0,0,0,5],[1,1,0,0,-5]];perimeter=orthogonalPerimeter;outlineConnect=0;targetShapes=umlLifeline;portConstraint=eastwest;newEdgeStyle={&quot;curved&quot;:0,&quot;rounded&quot;:0};" vertex="1" parent="BHg9AFTFCtXIUyWafe2j-1">
          <mxGeometry x="5" y="60" width="10" height="360" as="geometry" />
        </mxCell>
        <mxCell id="BHg9AFTFCtXIUyWafe2j-5" value="Admin" style="text;html=1;align=center;verticalAlign=middle;whiteSpace=wrap;rounded=0;" vertex="1" parent="1">
          <mxGeometry x="80" y="60" width="60" height="30" as="geometry" />
        </mxCell>
        <mxCell id="BHg9AFTFCtXIUyWafe2j-7" value="&lt;div align=&quot;center&quot;&gt;Frontend&amp;nbsp;&lt;br&gt;admin&lt;/div&gt;" style="shape=umlLifeline;perimeter=lifelinePerimeter;whiteSpace=wrap;html=1;container=1;dropTarget=0;collapsible=0;recursiveResize=0;outlineConnect=0;portConstraint=eastwest;newEdgeStyle={&quot;curved&quot;:0,&quot;rounded&quot;:0};participant=umlBoundary;size=70;align=center;" vertex="1" parent="1">
          <mxGeometry x="240" y="75" width="90" height="465" as="geometry" />
        </mxCell>
        <mxCell id="BHg9AFTFCtXIUyWafe2j-36" value="" style="html=1;points=[[0,0,0,0,5],[0,1,0,0,-5],[1,0,0,0,5],[1,1,0,0,-5]];perimeter=orthogonalPerimeter;outlineConnect=0;targetShapes=umlLifeline;portConstraint=eastwest;newEdgeStyle={&quot;curved&quot;:0,&quot;rounded&quot;:0};" vertex="1" parent="BHg9AFTFCtXIUyWafe2j-7">
          <mxGeometry x="40" y="95" width="10" height="335" as="geometry" />
        </mxCell>
        <mxCell id="BHg9AFTFCtXIUyWafe2j-9" value="1. Adaugă produs()" style="html=1;verticalAlign=bottom;endArrow=block;curved=0;rounded=0;" edge="1" parent="1" target="BHg9AFTFCtXIUyWafe2j-36">
          <mxGeometry width="80" relative="1" as="geometry">
            <mxPoint x="115" y="180" as="sourcePoint" />
            <mxPoint x="284.5" y="180" as="targetPoint" />
          </mxGeometry>
        </mxCell>
        <mxCell id="BHg9AFTFCtXIUyWafe2j-10" value="2. Trimite datele produsului()" style="html=1;verticalAlign=bottom;endArrow=block;curved=0;rounded=0;" edge="1" parent="1" source="BHg9AFTFCtXIUyWafe2j-36">
          <mxGeometry width="80" relative="1" as="geometry">
            <mxPoint x="300" y="210" as="sourcePoint" />
            <mxPoint x="444.5000000000002" y="210" as="targetPoint" />
          </mxGeometry>
        </mxCell>
        <mxCell id="BHg9AFTFCtXIUyWafe2j-30" value="4.2 Procesare operație()" style="html=1;align=left;spacingLeft=2;endArrow=block;rounded=0;edgeStyle=orthogonalEdgeStyle;curved=0;rounded=0;" edge="1" target="BHg9AFTFCtXIUyWafe2j-29" parent="1" source="BHg9AFTFCtXIUyWafe2j-6">
          <mxGeometry relative="1" as="geometry">
            <mxPoint x="625" y="360" as="sourcePoint" />
            <Array as="points">
              <mxPoint x="670" y="360" />
              <mxPoint x="670" y="400" />
            </Array>
          </mxGeometry>
        </mxCell>
        <mxCell id="BHg9AFTFCtXIUyWafe2j-32" value="4.4 Succes()" style="html=1;verticalAlign=bottom;endArrow=open;dashed=1;endSize=8;curved=0;rounded=0;" edge="1" parent="1">
          <mxGeometry relative="1" as="geometry">
            <mxPoint x="440" y="420" as="sourcePoint" />
            <mxPoint x="290" y="420" as="targetPoint" />
            <Array as="points">
              <mxPoint x="360" y="420" />
            </Array>
          </mxGeometry>
        </mxCell>
        <mxCell id="BHg9AFTFCtXIUyWafe2j-33" value="4.5 Produs create()" style="html=1;verticalAlign=bottom;endArrow=open;dashed=1;endSize=8;curved=0;rounded=0;" edge="1" parent="1" target="BHg9AFTFCtXIUyWafe2j-34">
          <mxGeometry relative="1" as="geometry">
            <mxPoint x="280" y="430" as="sourcePoint" />
            <mxPoint x="100" y="410" as="targetPoint" />
            <Array as="points">
              <mxPoint x="200" y="430" />
            </Array>
          </mxGeometry>
        </mxCell>
        <mxCell id="BHg9AFTFCtXIUyWafe2j-16" value="" style="group;movable=1;resizable=1;rotatable=1;deletable=1;editable=1;locked=0;connectable=1;" vertex="1" connectable="0" parent="1">
          <mxGeometry x="10" y="310" width="800" height="270" as="geometry" />
        </mxCell>
        <mxCell id="BHg9AFTFCtXIUyWafe2j-19" value="" style="group;movable=1;resizable=1;rotatable=1;deletable=1;editable=1;locked=0;connectable=1;" vertex="1" connectable="0" parent="BHg9AFTFCtXIUyWafe2j-16">
          <mxGeometry width="800" height="270" as="geometry" />
        </mxCell>
        <mxCell id="BHg9AFTFCtXIUyWafe2j-13" value="alt" style="shape=umlFrame;whiteSpace=wrap;html=1;pointerEvents=0;movable=1;resizable=1;rotatable=1;deletable=1;editable=1;locked=0;connectable=1;" vertex="1" parent="BHg9AFTFCtXIUyWafe2j-19">
          <mxGeometry width="800" height="210" as="geometry" />
        </mxCell>
        <mxCell id="BHg9AFTFCtXIUyWafe2j-15" value="[Autorizat]" style="text;html=1;align=center;verticalAlign=middle;whiteSpace=wrap;rounded=0;" vertex="1" parent="BHg9AFTFCtXIUyWafe2j-19">
          <mxGeometry x="0.0012500000000006395" y="30" width="66.7741935483871" height="30" as="geometry" />
        </mxCell>
        <mxCell id="BHg9AFTFCtXIUyWafe2j-17" value="[Neautorizat]" style="text;html=1;align=center;verticalAlign=middle;whiteSpace=wrap;rounded=0;" vertex="1" parent="BHg9AFTFCtXIUyWafe2j-19">
          <mxGeometry x="10.00125" y="140" width="66.7741935483871" height="30" as="geometry" />
        </mxCell>
        <mxCell id="BHg9AFTFCtXIUyWafe2j-14" value="" style="endArrow=none;dashed=1;html=1;dashPattern=1 3;strokeWidth=2;rounded=0;exitX=0.001;exitY=0.639;exitDx=0;exitDy=0;exitPerimeter=0;entryX=1.003;entryY=0.627;entryDx=0;entryDy=0;entryPerimeter=0;" edge="1" parent="BHg9AFTFCtXIUyWafe2j-19" source="BHg9AFTFCtXIUyWafe2j-13" target="BHg9AFTFCtXIUyWafe2j-13">
          <mxGeometry width="50" height="50" relative="1" as="geometry">
            <mxPoint x="10.780000000000022" y="135.63" as="sourcePoint" />
            <mxPoint x="808.38" y="134.37" as="targetPoint" />
          </mxGeometry>
        </mxCell>
        <mxCell id="BHg9AFTFCtXIUyWafe2j-20" value="4.1 Neautorizat()" style="html=1;verticalAlign=bottom;endArrow=open;dashed=1;endSize=8;curved=0;rounded=0;" edge="1" parent="BHg9AFTFCtXIUyWafe2j-19" target="BHg9AFTFCtXIUyWafe2j-36">
          <mxGeometry relative="1" as="geometry">
            <mxPoint x="434.5" y="160" as="sourcePoint" />
            <mxPoint x="274.6666666666665" y="160" as="targetPoint" />
          </mxGeometry>
        </mxCell>
        <mxCell id="BHg9AFTFCtXIUyWafe2j-23" value="4.2 Operație interzisă()" style="html=1;verticalAlign=bottom;endArrow=open;dashed=1;endSize=8;curved=0;rounded=0;" edge="1" parent="BHg9AFTFCtXIUyWafe2j-19" target="BHg9AFTFCtXIUyWafe2j-34">
          <mxGeometry relative="1" as="geometry">
            <mxPoint x="270" y="180" as="sourcePoint" />
            <mxPoint x="99.81034482758616" y="180" as="targetPoint" />
          </mxGeometry>
        </mxCell>
        <mxCell id="BHg9AFTFCtXIUyWafe2j-24" value="4.1 Introduce datele()" style="html=1;verticalAlign=bottom;endArrow=block;curved=0;rounded=0;" edge="1" parent="BHg9AFTFCtXIUyWafe2j-19" target="BHg9AFTFCtXIUyWafe2j-29">
          <mxGeometry width="80" relative="1" as="geometry">
            <mxPoint x="434.8103448275863" y="30" as="sourcePoint" />
            <mxPoint x="609.5000000000002" y="30" as="targetPoint" />
          </mxGeometry>
        </mxCell>
        <mxCell id="BHg9AFTFCtXIUyWafe2j-25" value="4.3 Date introduse cu succes()" style="html=1;verticalAlign=bottom;endArrow=open;dashed=1;endSize=8;curved=0;rounded=0;movable=1;resizable=1;rotatable=1;deletable=1;editable=1;locked=0;connectable=1;" edge="1" parent="BHg9AFTFCtXIUyWafe2j-19" target="BHg9AFTFCtXIUyWafe2j-37">
          <mxGeometry relative="1" as="geometry">
            <mxPoint x="610.0000000000002" y="100" as="sourcePoint" />
            <mxPoint x="435.3103448275863" y="100" as="targetPoint" />
          </mxGeometry>
        </mxCell>
        <mxCell id="BHg9AFTFCtXIUyWafe2j-37" value="" style="html=1;points=[[0,0,0,0,5],[0,1,0,0,-5],[1,0,0,0,5],[1,1,0,0,-5]];perimeter=orthogonalPerimeter;outlineConnect=0;targetShapes=umlLifeline;portConstraint=eastwest;newEdgeStyle={&quot;curved&quot;:0,&quot;rounded&quot;:0};" vertex="1" parent="BHg9AFTFCtXIUyWafe2j-19">
          <mxGeometry x="430" y="10" width="10" height="170" as="geometry" />
        </mxCell>
        <mxCell id="BHg9AFTFCtXIUyWafe2j-29" value="" style="html=1;points=[[0,0,0,0,5],[0,1,0,0,-5],[1,0,0,0,5],[1,1,0,0,-5]];perimeter=orthogonalPerimeter;outlineConnect=0;targetShapes=umlLifeline;portConstraint=eastwest;newEdgeStyle={&quot;curved&quot;:0,&quot;rounded&quot;:0};" vertex="1" parent="BHg9AFTFCtXIUyWafe2j-19">
          <mxGeometry x="605" y="20" width="10" height="90" as="geometry" />
        </mxCell>
        <mxCell id="BHg9AFTFCtXIUyWafe2j-43" value="Baza de date" style="shape=umlLifeline;perimeter=lifelinePerimeter;whiteSpace=wrap;html=1;container=1;dropTarget=0;collapsible=0;recursiveResize=0;outlineConnect=0;portConstraint=eastwest;newEdgeStyle={&quot;curved&quot;:0,&quot;rounded&quot;:0};participant=umlEntity;size=75;" vertex="1" parent="1">
          <mxGeometry x="1470" y="62.5" width="80" height="267.5" as="geometry" />
        </mxCell>
        <mxCell id="BHg9AFTFCtXIUyWafe2j-78" value="" style="html=1;points=[[0,0,0,0,5],[0,1,0,0,-5],[1,0,0,0,5],[1,1,0,0,-5]];perimeter=orthogonalPerimeter;outlineConnect=0;targetShapes=umlLifeline;portConstraint=eastwest;newEdgeStyle={&quot;curved&quot;:0,&quot;rounded&quot;:0};" vertex="1" parent="BHg9AFTFCtXIUyWafe2j-43">
          <mxGeometry x="35" y="120" width="10" height="70" as="geometry" />
        </mxCell>
        <mxCell id="BHg9AFTFCtXIUyWafe2j-44" value="Admin API" style="shape=umlLifeline;perimeter=lifelinePerimeter;whiteSpace=wrap;html=1;container=1;dropTarget=0;collapsible=0;recursiveResize=0;outlineConnect=0;portConstraint=eastwest;newEdgeStyle={&quot;curved&quot;:0,&quot;rounded&quot;:0};participant=umlControl;size=75;" vertex="1" parent="1">
          <mxGeometry x="1300" y="62.5" width="70" height="267.5" as="geometry" />
        </mxCell>
        <mxCell id="BHg9AFTFCtXIUyWafe2j-80" value="" style="html=1;points=[[0,0,0,0,5],[0,1,0,0,-5],[1,0,0,0,5],[1,1,0,0,-5]];perimeter=orthogonalPerimeter;outlineConnect=0;targetShapes=umlLifeline;portConstraint=eastwest;newEdgeStyle={&quot;curved&quot;:0,&quot;rounded&quot;:0};" vertex="1" parent="BHg9AFTFCtXIUyWafe2j-44">
          <mxGeometry x="30" y="100" width="10" height="110" as="geometry" />
        </mxCell>
        <mxCell id="BHg9AFTFCtXIUyWafe2j-47" value="" style="shape=umlLifeline;perimeter=lifelinePerimeter;whiteSpace=wrap;html=1;container=1;dropTarget=0;collapsible=0;recursiveResize=0;outlineConnect=0;portConstraint=eastwest;newEdgeStyle={&quot;curved&quot;:0,&quot;rounded&quot;:0};participant=umlActor;" vertex="1" parent="1">
          <mxGeometry x="980" y="75" width="20" height="255" as="geometry" />
        </mxCell>
        <mxCell id="BHg9AFTFCtXIUyWafe2j-77" value="" style="html=1;points=[[0,0,0,0,5],[0,1,0,0,-5],[1,0,0,0,5],[1,1,0,0,-5]];perimeter=orthogonalPerimeter;outlineConnect=0;targetShapes=umlLifeline;portConstraint=eastwest;newEdgeStyle={&quot;curved&quot;:0,&quot;rounded&quot;:0};" vertex="1" parent="BHg9AFTFCtXIUyWafe2j-47">
          <mxGeometry x="5" y="65" width="10" height="165" as="geometry" />
        </mxCell>
        <mxCell id="BHg9AFTFCtXIUyWafe2j-49" value="Client" style="text;html=1;align=center;verticalAlign=middle;whiteSpace=wrap;rounded=0;" vertex="1" parent="1">
          <mxGeometry x="960" y="45" width="60" height="30" as="geometry" />
        </mxCell>
        <mxCell id="BHg9AFTFCtXIUyWafe2j-50" value="&lt;div align=&quot;center&quot;&gt;Frontend&amp;nbsp;&lt;br&gt;client&lt;/div&gt;" style="shape=umlLifeline;perimeter=lifelinePerimeter;whiteSpace=wrap;html=1;container=1;dropTarget=0;collapsible=0;recursiveResize=0;outlineConnect=0;portConstraint=eastwest;newEdgeStyle={&quot;curved&quot;:0,&quot;rounded&quot;:0};participant=umlBoundary;size=70;align=center;" vertex="1" parent="1">
          <mxGeometry x="1130" y="62.5" width="90" height="267.5" as="geometry" />
        </mxCell>
        <mxCell id="BHg9AFTFCtXIUyWafe2j-79" value="" style="html=1;points=[[0,0,0,0,5],[0,1,0,0,-5],[1,0,0,0,5],[1,1,0,0,-5]];perimeter=orthogonalPerimeter;outlineConnect=0;targetShapes=umlLifeline;portConstraint=eastwest;newEdgeStyle={&quot;curved&quot;:0,&quot;rounded&quot;:0};" vertex="1" parent="BHg9AFTFCtXIUyWafe2j-50">
          <mxGeometry x="40" y="80" width="10" height="160" as="geometry" />
        </mxCell>
        <mxCell id="BHg9AFTFCtXIUyWafe2j-70" value="2. Cere date despre produs()" style="html=1;verticalAlign=bottom;endArrow=block;curved=0;rounded=0;" edge="1" parent="1">
          <mxGeometry width="80" relative="1" as="geometry">
            <mxPoint x="1180" y="170" as="sourcePoint" />
            <mxPoint x="1330" y="170" as="targetPoint" />
          </mxGeometry>
        </mxCell>
        <mxCell id="BHg9AFTFCtXIUyWafe2j-71" value="3. Preia datele()" style="html=1;verticalAlign=bottom;endArrow=block;curved=0;rounded=0;" edge="1" parent="1" source="BHg9AFTFCtXIUyWafe2j-80" target="BHg9AFTFCtXIUyWafe2j-78">
          <mxGeometry width="80" relative="1" as="geometry">
            <mxPoint x="1335.0348837209299" y="200" as="sourcePoint" />
            <mxPoint x="1509.5" y="200" as="targetPoint" />
            <Array as="points">
              <mxPoint x="1420" y="200" />
            </Array>
          </mxGeometry>
        </mxCell>
        <mxCell id="BHg9AFTFCtXIUyWafe2j-74" value="4. Returnează datele()" style="html=1;verticalAlign=bottom;endArrow=open;dashed=1;endSize=8;curved=0;rounded=0;" edge="1" parent="1" source="BHg9AFTFCtXIUyWafe2j-78" target="BHg9AFTFCtXIUyWafe2j-80">
          <mxGeometry relative="1" as="geometry">
            <mxPoint x="1509.5" y="240" as="sourcePoint" />
            <mxPoint x="1335.0348837209299" y="240" as="targetPoint" />
            <Array as="points">
              <mxPoint x="1420" y="240" />
            </Array>
          </mxGeometry>
        </mxCell>
        <mxCell id="BHg9AFTFCtXIUyWafe2j-75" value="5. Trimite datele produsului()" style="html=1;verticalAlign=bottom;endArrow=open;dashed=1;endSize=8;curved=0;rounded=0;" edge="1" parent="1" source="BHg9AFTFCtXIUyWafe2j-80" target="BHg9AFTFCtXIUyWafe2j-79">
          <mxGeometry relative="1" as="geometry">
            <mxPoint x="1330" y="260" as="sourcePoint" />
            <mxPoint x="1180.00488372093" y="260" as="targetPoint" />
            <Array as="points">
              <mxPoint x="1250" y="260" />
            </Array>
          </mxGeometry>
        </mxCell>
      </root>
    </mxGraphModel>
  </diagram>
</mxfile>
